<svg width="284" height="284" viewBox="0 0 284 284" fill="none" xmlns="http://www.w3.org/2000/svg">
<g clip-path="url(#clip0_2003_5496)">
<path d="M132.201 0H151.835C153.033 0.660522 159.619 0.853934 161.528 1.11846C168.71 2.1729 175.812 3.72047 182.78 5.75018C215.64 15.5849 243.811 37.0151 262.059 66.058C266.934 73.7327 271.047 81.867 274.335 90.344C277.791 99.3657 280.341 108.709 281.947 118.235C282.467 121.387 282.872 124.48 283.196 127.653C283.37 129.352 283.242 133.646 283.999 134.936V148.745C283.535 149.61 283.47 151.082 283.418 152.065C283.12 158.374 282.285 164.648 280.928 170.817C278.419 182.686 275.246 192.503 269.92 203.476C253.548 237.305 224.465 263.289 189.012 275.76C153.208 288.163 113.944 285.826 79.8641 269.269C46.2042 252.759 20.4071 223.649 8.06414 188.248C-4.25112 152.382 -1.80954 113.093 14.8515 79.0288C32.3348 43.4745 63.896 16.8561 101.89 5.62134C108.421 3.73698 115.07 2.28731 121.792 1.28183C124.07 0.93738 130.483 0.71612 132.201 0Z" fill="#C9050B"/>
<path d="M137.867 17.1629C206.741 15.2287 264.13 69.519 266.019 138.395C267.906 207.269 213.577 264.623 144.702 266.466C75.8894 268.306 18.6022 214.039 16.7157 145.229C14.8292 76.4187 69.0573 19.0952 137.867 17.1629Z" fill="#F8B901"/>
<path d="M105.119 52.497C112.255 51.9466 134.542 52.8111 138.085 59.6651C135.77 63.9687 132.519 62.2386 128.89 62.139C116.935 61.8108 103.864 64.4124 93.7506 70.6729C84.0602 76.5721 77.1778 86.1502 74.6777 97.2161C68.4645 124.111 87.9114 152.728 107.311 169.489C111.425 173.044 116.72 178.295 115.524 184.275C114.638 188.707 110.275 188.651 107.148 190.479C110.534 192.204 113.751 192.13 117.427 191.515C119.907 191.099 123.589 190.429 125.108 188.175C126.532 186.062 125.658 183.312 124.623 181.233C121.73 175.423 115.12 168.656 110.802 163.636C105.003 156.894 99.3523 150.12 94.4691 142.667C89.735 135.442 86.0335 127.522 84.4929 118.98C82.5075 107.972 85.5526 97.0911 91.8941 88.0151C95.6495 82.6401 103.371 74.3434 109.059 70.9782C114.173 67.9533 120.703 65.9793 126.537 64.9714C127.993 64.7198 129.473 64.543 130.952 64.5303C138.879 64.4621 157.683 66.9416 164.088 71.5407C164.903 72.1256 165.662 72.8728 165.808 73.9057C165.977 75.1022 165.975 76.364 166.054 77.5739C166.287 81.1662 166.408 84.721 166.414 88.3218C166.427 95.9919 166.236 103.629 166.009 111.293C165.966 112.736 166.276 117.915 165.555 118.834C164.848 119.138 164.059 118.776 163.482 118.244C153.277 108.829 137.2 90.9704 129.773 114.035C128.389 118.334 137.241 126.134 140.284 128.889C142.76 131.158 145.277 133.382 147.834 135.559C154.313 141.18 160.788 146.749 165.358 154.054C165.744 154.671 166.188 155.292 166.594 155.898C172.561 148.106 177.371 142.853 186.267 138.212C188.881 136.869 191.646 135.841 194.503 135.151C196.436 134.705 201.068 134.016 203.124 134.062C210.414 134.223 218.786 136.137 225.061 139.909C226.403 140.716 227.939 142.07 228.275 143.63C228.415 144.282 228.235 145.785 228.037 146.431C226.956 149.955 222.786 161.297 220.858 164.004C218.787 164.236 216.588 163.898 214.645 163.256C207.427 160.871 203.058 158.48 195.334 161.51C190.461 163.374 186.823 167.236 184.758 172.062C180.148 182.838 183.754 200.311 195.152 205.414C199.67 207.437 203.768 206.181 208.143 204.372C208.143 202.047 208.593 199.746 208.703 197.425C208.822 194.908 208.283 183.865 209.152 182.523C209.671 181.723 210.869 181.364 211.752 181.157C214.535 180.504 223.48 180.436 226.291 180.967C227.168 181.132 227.877 181.408 228.634 181.88C229.773 184.164 229.412 187.966 229.411 190.598L229.405 202.649L229.414 216.055C229.418 218.52 229.537 221.055 229.365 223.51C229.271 224.862 228.967 226.305 227.858 227.205C226.238 228.516 213.601 230.377 210.963 230.691C208.374 230.999 205.703 231.221 203.098 231.32C200.962 231.404 198.782 231.237 196.658 231.019C185.839 229.917 177.021 224.512 170.603 215.861C169.835 214.825 169.048 213.788 168.376 212.688C167.591 211.404 166.893 209.962 165.931 208.804C165.246 207.982 164.178 207.022 163.067 206.917C162.294 207.237 161.457 209.251 160.967 209.986C159.161 212.69 156.97 215.603 154.651 217.88C141.767 230.531 124.77 231.222 107.856 229.881C102.556 229.489 97.2637 229.006 91.9803 228.435C88.7136 228.112 82.4104 227.793 79.3068 226.89C77.9688 226.499 76.7579 225.761 75.7969 224.752C73.8662 222.724 74.3704 220.265 74.3934 217.618L74.403 211.533C74.4037 204.081 74.2911 196.332 74.427 188.903C75.4181 187.5 76.1536 187.013 77.6031 186.26C80.8798 187.488 83.2175 188.16 86.7781 188.044C89.274 187.962 92.1295 187.324 93.9163 185.413C96.2848 182.881 94.4766 178.603 93.5601 175.872C90.0256 165.342 83.9501 156.293 76.9097 147.789C73.5381 143.716 69.8498 139.496 66.6055 135.274C63.9102 131.83 61.496 128.175 59.3859 124.345C55.4478 117.031 53.67 109.246 53.2523 100.983C53.0192 98.1792 53.4413 95.4375 53.5944 92.6701C55.167 64.2381 79.8238 53.4756 105.119 52.497Z" fill="#C9050B"/>
<path d="M172.634 241.902L172.879 241.873C179.318 241.173 180.761 249.704 177.478 253.616C175.176 256.359 172.26 255.678 169.886 253.557L169.887 257.132L169.882 260.05L166.434 260.061L166.432 242.116C167.522 242.114 168.613 242.121 169.703 242.136L169.609 243.922C170.801 242.802 171.104 242.486 172.634 241.902Z" fill="#C9050B"/>
<path d="M172.568 244.495C173.947 244.61 175.034 245.319 175.378 246.682C175.999 249.157 175.722 251.871 173.033 252.706C168.795 252.093 168.742 245.445 172.568 244.495Z" fill="#F8B901"/>
<path d="M114.22 236.904C118.469 236.531 121.175 237.948 122.658 242.053C121.585 242.348 120.16 242.59 119.045 242.81C117.065 238.461 111.255 239.322 110.194 243.319C108.497 249.716 112.272 254.716 119.173 250.834L119.161 248.505L115.071 248.503C115.007 247.769 115.023 247.017 115.023 246.28C115.023 245.873 114.976 245.833 115.193 245.51C117.005 245.326 120.908 245.457 122.87 245.468C122.843 247.854 122.847 250.239 122.88 252.624C120.964 254.146 118.648 255.082 116.212 255.317C113.708 255.575 111.046 255.071 109.121 253.416C104.265 249.239 105.204 239.447 111.697 237.344C112.619 237.044 113.272 236.987 114.22 236.904Z" fill="#C9050B"/>
<path d="M140.717 241.888C144.426 241.282 147.924 243.799 148.526 247.508C149.127 251.217 146.605 254.712 142.895 255.31C139.19 255.907 135.703 253.39 135.102 249.687C134.501 245.983 137.014 242.492 140.717 241.888Z" fill="#C9050B"/>
<path d="M141.182 244.637C145.785 244.385 146.423 250.972 142.471 252.54C139.105 252.657 138.027 249.795 138.947 246.83C139.307 245.671 140.112 245.123 141.182 244.637Z" fill="#F8B901"/>
<path d="M159.532 242.127L163.005 242.104C162.974 243.63 162.985 245.204 162.977 246.732L162.978 255.113C161.927 255.09 160.737 255.382 159.965 254.835C159.654 254.385 159.768 253.882 159.804 253.317C154.944 257.551 150.65 255.084 151.137 248.994C151.294 247.033 151.155 244.136 151.136 242.131L154.605 242.107C154.589 243.613 153.184 256.237 158.571 252.031C159.998 250.917 159.545 244.179 159.532 242.127Z" fill="#C9050B"/>
<path d="M131.442 241.858C132.85 241.753 133.171 241.898 134.463 242.366C134.128 243.442 133.769 244.371 133.359 245.424C129.608 243.757 129.532 247.253 129.48 250.019C129.449 251.709 129.463 253.414 129.464 255.104L127.679 255.115L126.019 255.096C125.933 250.871 126.016 246.368 126.021 242.12C126.878 242.095 128.504 241.926 129.178 242.369C129.214 242.826 129.191 242.916 129.381 243.339C129.709 243.289 130.695 242.215 131.442 241.858Z" fill="#C9050B"/>
</g>
<defs>
<clipPath id="clip0_2003_5496">
<rect width="284" height="284" fill="white"/>
</clipPath>
</defs>
</svg>
