<svg width="128" height="128" viewBox="0 0 128 128" fill="none" xmlns="http://www.w3.org/2000/svg">
<g clip-path="url(#clip0_2003_6103)">
<path d="M59.5855 0H68.4347C68.9747 0.2977 71.9429 0.384872 72.8035 0.504093C76.0404 0.979338 79.241 1.67683 82.3816 2.59163C97.1916 7.02419 109.888 16.6829 118.113 29.7726C120.31 33.2316 122.164 36.8978 123.646 40.7184C125.203 44.7846 126.353 48.9954 127.077 53.289C127.311 54.7096 127.493 56.1038 127.64 57.5339C127.718 58.2993 127.66 60.235 128.002 60.8161V67.04C127.792 67.43 127.763 68.0931 127.74 68.5363C127.605 71.38 127.229 74.2075 126.617 76.9881C125.487 82.3375 124.057 86.7619 121.656 91.7075C114.277 106.954 101.169 118.666 85.1904 124.286C69.0535 129.876 51.3572 128.823 35.997 121.361C20.8264 113.919 9.1995 100.799 3.63647 84.8444C-1.91407 68.6794 -0.813643 50.9717 6.69556 35.6186C14.5754 19.5941 28.8001 7.59713 45.9243 2.53356C48.8678 1.68428 51.8643 1.0309 54.8942 0.577727C55.9207 0.422481 58.8111 0.322758 59.5855 0Z" fill="#C9050B"/>
<path d="M62.1403 7.73548C93.1823 6.86373 119.048 31.3326 119.899 62.3751C120.75 93.4173 96.2635 119.267 65.221 120.097C34.207 120.927 8.3874 96.4686 7.53715 65.4554C6.6869 34.4423 31.1277 8.60635 62.1403 7.73548Z" fill="#F8B901"/>
<path d="M47.376 23.6603C50.5926 23.4123 60.6374 23.8019 62.2342 26.891C61.1908 28.8307 59.7257 28.0509 58.0901 28.006C52.7017 27.8581 46.8104 29.0307 42.2525 31.8523C37.885 34.5111 34.783 38.828 33.6562 43.8154C30.8559 55.9372 39.6207 68.8349 48.364 76.3893C50.2184 77.9912 52.605 80.358 52.0659 83.053C51.6664 85.0505 49.7003 85.0255 48.2908 85.8493C49.8169 86.6268 51.2666 86.5937 52.9234 86.3162C54.0414 86.1287 55.7009 85.8268 56.3853 84.8112C57.0273 83.8587 56.6333 82.6193 56.1668 81.6824C54.8627 79.0637 51.8837 76.0137 49.9378 73.7512C47.3242 70.7124 44.7772 67.6593 42.5763 64.3005C40.4426 61.0439 38.7744 57.4746 38.08 53.6243C37.1852 48.663 38.5576 43.7591 41.4157 39.6685C43.1083 37.246 46.5883 33.5066 49.152 31.9899C51.4568 30.6265 54.3999 29.7368 57.0295 29.2826C57.6858 29.1692 58.3527 29.0895 59.0195 29.0838C62.592 29.053 71.067 30.1706 73.9539 32.2434C74.3214 32.507 74.6632 32.8438 74.7289 33.3093C74.8051 33.8486 74.8045 34.4173 74.8401 34.9626C74.9451 36.5817 74.9995 38.1838 75.002 39.8067C75.0082 43.2637 74.922 46.7057 74.8195 50.16C74.8001 50.8102 74.9401 53.1445 74.6151 53.5586C74.2964 53.6959 73.9407 53.5327 73.6807 53.2927C69.0814 49.0493 61.8352 41.0005 58.488 51.3957C57.864 53.3335 61.8537 56.8487 63.2251 58.0905C64.3414 59.1131 65.4757 60.1153 66.6282 61.0968C69.5482 63.6299 72.4664 66.1399 74.5264 69.4324C74.7001 69.7105 74.9001 69.9905 75.0832 70.2637C77.7726 66.7518 79.9407 64.3843 83.9501 62.2926C85.1282 61.687 86.3745 61.2238 87.662 60.913C88.5332 60.7118 90.6207 60.4015 91.5476 60.422C94.8332 60.4947 98.6064 61.3572 101.434 63.0574C102.039 63.4212 102.732 64.0312 102.883 64.7343C102.946 65.028 102.865 65.7055 102.776 65.9968C102.289 67.5849 100.409 72.6968 99.5401 73.9168C98.607 74.0218 97.6157 73.8693 96.7401 73.5799C93.487 72.5049 91.5176 71.4274 88.0364 72.793C85.8401 73.633 84.2007 75.3737 83.2701 77.5487C81.192 82.4055 82.8176 90.2805 87.9545 92.5805C89.9907 93.4924 91.8376 92.9262 93.8095 92.1112C93.8095 91.063 94.0126 90.0262 94.062 88.9799C94.1157 87.8455 93.8726 82.8687 94.2645 82.2637C94.4982 81.903 95.0382 81.7412 95.4363 81.648C96.6907 81.3537 100.722 81.323 101.989 81.5624C102.384 81.6368 102.704 81.7612 103.045 81.9737C103.558 83.003 103.396 84.7168 103.395 85.903L103.393 91.3343L103.396 97.3768C103.398 98.4874 103.452 99.6299 103.374 100.737C103.332 101.346 103.195 101.996 102.695 102.402C101.965 102.993 96.2695 103.832 95.0807 103.973C93.9138 104.112 92.7101 104.212 91.5357 104.257C90.5732 104.294 89.5907 104.219 88.6332 104.121C83.757 103.624 79.7826 101.188 76.8901 97.2893C76.5439 96.8224 76.1895 96.3549 75.8864 95.8593C75.5326 95.2805 75.2182 94.6305 74.7845 94.1087C74.4757 93.738 73.9945 93.3055 73.4939 93.258C73.1451 93.4024 72.7682 94.3099 72.547 94.6412C71.7332 95.8599 70.7457 97.173 69.7007 98.1993C63.8939 103.901 56.2329 104.212 48.6099 103.608C46.2213 103.431 43.8359 103.214 41.4546 102.956C39.9823 102.811 37.1414 102.667 35.7426 102.26C35.1395 102.084 34.5938 101.751 34.1607 101.296C33.2905 100.382 33.5177 99.2743 33.5281 98.0812L33.5324 95.3387C33.5327 91.9799 33.482 88.4874 33.5432 85.1393C33.9899 84.5068 34.3214 84.2874 34.9747 83.948C36.4515 84.5012 37.5052 84.8043 39.1099 84.7518C40.2349 84.7149 41.5219 84.4274 42.3272 83.5662C43.3947 82.4249 42.5797 80.4968 42.1666 79.2662C40.5736 74.5199 37.8354 70.4418 34.6622 66.6087C33.1426 64.773 31.4803 62.8712 30.018 60.9681C28.8033 59.416 27.7152 57.7689 26.7642 56.0427C24.9892 52.746 24.188 49.2375 23.9997 45.5133C23.8947 44.2495 24.0849 43.0138 24.1539 41.7665C24.8627 28.9521 35.9756 24.1014 47.376 23.6603Z" fill="#C9050B"/>
<path d="M77.8075 109.027L77.9175 109.013C80.82 108.698 81.47 112.543 79.9906 114.306C78.9531 115.542 77.6387 115.235 76.5687 114.28L76.5693 115.891L76.5668 117.206L75.0131 117.211L75.0118 109.123C75.5031 109.122 75.995 109.125 76.4862 109.132L76.4437 109.937C76.9812 109.432 77.1175 109.29 77.8075 109.027Z" fill="#C9050B"/>
<path d="M77.7791 110.195C78.4004 110.247 78.8904 110.567 79.0454 111.181C79.3254 112.297 79.2004 113.52 77.9885 113.896C76.0785 113.62 76.0548 110.623 77.7791 110.195Z" fill="#F8B901"/>
<path d="M51.4784 106.774C53.3935 106.606 54.613 107.245 55.2815 109.095C54.7977 109.228 54.1558 109.336 53.6532 109.436C52.7608 107.476 50.142 107.864 49.6641 109.665C48.8989 112.548 50.6002 114.802 53.7109 113.052L53.7052 112.003L51.8618 112.001C51.8329 111.671 51.8405 111.332 51.8403 111C51.8404 110.816 51.8191 110.798 51.917 110.653C52.7334 110.57 54.4926 110.629 55.3769 110.634C55.365 111.709 55.3665 112.784 55.3815 113.859C54.518 114.545 53.4743 114.967 52.3764 115.073C51.2475 115.189 50.0479 114.962 49.1802 114.216C46.9917 112.333 47.4147 107.92 50.3411 106.972C50.7568 106.837 51.051 106.811 51.4784 106.774Z" fill="#C9050B"/>
<path d="M63.426 109.02C65.0979 108.747 66.6741 109.881 66.9454 111.553C67.2166 113.225 66.0797 114.8 64.4079 115.069C62.7379 115.339 61.1664 114.204 60.8955 112.535C60.6246 110.866 61.7571 109.293 63.426 109.02Z" fill="#C9050B"/>
<path d="M63.63 110.259C65.7044 110.145 65.9919 113.114 64.2107 113.821C62.6938 113.873 62.208 112.583 62.6225 111.247C62.785 110.725 63.1475 110.478 63.63 110.259Z" fill="#F8B901"/>
<path d="M71.9023 109.127L73.4673 109.117C73.4536 109.805 73.4586 110.514 73.4548 111.203L73.4555 114.98C72.9817 114.97 72.4454 115.102 72.0973 114.855C71.9573 114.652 72.0086 114.425 72.0248 114.171C69.8342 116.079 67.8992 114.967 68.1186 112.222C68.1892 111.338 68.1267 110.033 68.118 109.129L69.6817 109.118C69.6742 109.797 69.0411 115.487 71.4692 113.591C72.1123 113.089 71.9079 110.052 71.9023 109.127Z" fill="#C9050B"/>
<path d="M59.2433 109.006C59.8778 108.958 60.0224 109.024 60.6048 109.235C60.4537 109.72 60.2916 110.138 60.1071 110.613C58.4166 109.862 58.3824 111.437 58.3589 112.684C58.3447 113.446 58.3511 114.214 58.3513 114.976L57.5469 114.981L56.7989 114.972C56.7603 113.068 56.7977 111.038 56.7997 109.124C57.1861 109.113 57.9191 109.037 58.2226 109.236C58.2389 109.442 58.2285 109.483 58.3142 109.673C58.4618 109.651 58.9062 109.167 59.2433 109.006Z" fill="#C9050B"/>
</g>
<defs>
<clipPath id="clip0_2003_6103">
<rect width="128" height="128" fill="white"/>
</clipPath>
</defs>
</svg>
