<svg width="180" height="54" viewBox="0 0 180 54" fill="none" xmlns="http://www.w3.org/2000/svg">
<g clip-path="url(#clip0_2003_5722)">
<path d="M166.389 29.831C166.495 31.8191 168.948 32.3069 170.603 32.2141C174.319 32.0047 174.8 29.0669 174.802 25.9457C171.952 28.7842 165.863 28.5597 162.833 26.1572C158.889 23.0252 158.891 15.874 162.62 12.5714C165.757 9.7934 171.509 9.5797 174.696 12.3469L174.804 10.836L179.767 10.836V27.5646C179.767 29.3022 178.442 32.3846 177.184 33.615C173.044 37.6665 161.539 37.1614 161.211 29.831H166.389ZM169.583 14.3436C166.143 14.6134 165.017 17.3245 165.302 20.4501C165.776 25.6608 173.766 25.7039 174.537 20.8213C175.111 17.1799 173.702 14.0198 169.583 14.3436Z" fill="black"/>
<path d="M74.6867 28.1039H69.8319L69.5082 27.7801V16.5557C69.5082 16.478 69.0659 15.5261 68.9602 15.3772C67.9051 13.8792 64.9814 13.9957 63.7558 15.2261C63.5508 15.4312 62.8193 16.791 62.8193 16.9875V28.1039H57.8566C57.7099 25.028 58.0573 21.7729 57.8566 18.7164C57.656 15.66 57.0216 13.6871 53.4851 14.3389C52.4624 14.5289 50.9541 15.9988 50.9541 16.9875V28.1039H46.0993L45.7756 27.7801V11.1594L46.0993 10.8356H50.5226V12.7762L53.1161 11.1616C56.0938 9.96791 60.1136 10.1082 62.0663 12.9877C65.0655 9.64197 72.6045 9.0419 74.3026 13.9159C74.3782 14.1339 74.6889 15.1549 74.6889 15.2563V28.0996L74.6867 28.1039Z" fill="black"/>
<path d="M137.185 25.4382C132.768 30.2647 121.505 29.4013 119.34 22.6127C116.102 12.4568 128.06 7.33463 135.603 12.1719C139.782 14.8528 140.505 21.8097 137.182 25.4404L137.185 25.4382ZM132.656 15.6579C130.351 13.3613 124.974 14.257 124.366 17.9028C123.677 22.0191 125.63 24.931 130.008 24.4108C134.127 23.9208 135.139 18.1338 132.656 15.6579Z" fill="black"/>
<path d="M81.8073 23.1393C81.8936 23.2192 81.6325 23.8667 82.6725 24.3243C84.0987 24.9525 89.1931 25.0453 87.9567 22.4896C87.5511 21.6499 81.7512 20.9484 80.4177 20.5339C77.0776 19.4978 75.3449 17.2357 77.0992 13.7864C79.2288 9.59666 89.9397 9.22107 92.2096 13.0546C92.4685 13.4928 93.1805 14.8937 92.4534 15.1268C90.9905 14.7232 89.0981 15.1808 87.7496 14.9261C87.2706 14.8354 87.0073 14.3929 86.4355 14.2979C85.6091 14.162 82.625 14.1663 82.0813 14.775C81.2937 15.6535 81.9842 16.1327 82.7718 16.4543C86.0687 17.8012 92.9087 16.7306 93.461 21.7341C94.186 28.3262 86.6254 29.153 81.7598 28.2593C78.8836 27.7326 76.4583 26.3944 76.4152 23.1371H81.8094L81.8073 23.1393Z" fill="black"/>
<path d="M158.19 28.1043H153.227V17.2037C153.227 17.1174 152.768 15.7683 152.673 15.5999C151.557 13.6098 148.014 13.9227 146.754 15.6906C146.452 16.1137 145.893 17.6311 145.893 18.0671V28.1043H140.93V10.836H145.677V12.9946C148.202 10.0698 154.677 9.1783 157.113 12.4549C157.409 12.8521 158.192 14.4257 158.192 14.8293V28.1043H158.19Z" fill="black"/>
<path d="M100.795 7.59814V11.0518H105.973V14.9372L101.119 14.9372C100.81 15.1271 100.821 15.3667 100.784 15.6818C100.624 17.0396 100.668 21.9157 101.252 23.0057C101.388 23.2605 102.206 24.003 102.413 24.003L106.081 24.003L106.405 24.3268V27.7804L106.081 28.1042L101.119 28.1042C100.78 28.1042 99.0342 27.7113 98.6394 27.5624C97.3102 27.0552 95.8322 25.0995 95.8322 23.6792V14.9372H93.4587V11.0518H95.8322V7.59814L100.795 7.59814Z" fill="black"/>
<path d="M112.555 10.8358C113.129 11.0128 112.794 12.8929 112.88 13.426C114.522 11.7013 116.186 10.5962 118.704 10.8358V14.937C117.112 14.8442 115.295 15.0924 114.205 16.3724C113.964 16.6552 113.094 18.2439 113.094 18.4986V27.7802L112.77 28.104H107.916V10.8358H112.555Z" fill="black"/>
<path d="M35.6324 28.1042C30.2554 38.7609 15.6068 41.2691 6.61778 33.4941C-3.24077 24.9679 -1.8922 9.17173 9.37964 2.59684C18.9512 -2.98512 31.4767 0.744821 36.0985 10.8014L38.8711 10.836V13.6421C40.2197 11.9087 41.9329 10.5748 44.2632 10.836V15.153C42.5608 15.017 40.703 15.1725 39.7644 16.8043C39.6328 17.0353 39.0848 18.5635 39.0848 18.7146L39.0848 28.1042H35.6324ZM33.9063 25.9457L33.9063 11.3756C33.9063 11.1813 32.0657 8.5069 31.7529 8.13348C21.4908 -4.18095 1.62485 3.92866 2.393 19.8047C2.49657 21.9546 3.09641 24.8815 4.34356 26.5932L16.4181 6.18432C16.6123 5.90587 16.8755 5.90155 17.1754 5.8627C17.8875 5.76772 21.7713 5.79147 22.164 6.07424L33.9084 25.9478L33.9063 25.9457ZM23.9808 19.9018L19.126 11.0497L14.2712 19.9018H23.9808ZM9.41632 28.1042H5.2088C5.78491 29.5375 7.07522 30.8822 8.22743 31.8838C15.8592 38.5299 27.869 36.7599 33.0432 28.1042H28.8357L26.3759 23.9275L12.0423 23.7785L9.41632 28.1042Z" fill="black"/>
<path d="M78.3269 44.3212L80.4048 51.4185L82.4762 44.3169H83.7277C83.978 44.5306 85.0784 49.7543 85.4646 50.6716C85.5574 50.8918 85.6092 51.1746 85.9048 51.2005L87.8251 44.4227L89.1435 44.2953L86.1357 53.6936L85.3934 53.7713C84.8669 53.5921 83.7385 48.1656 83.3306 47.1964C83.2379 46.9762 83.1861 46.6935 82.8905 46.6676L81.0607 53.5792L79.8934 53.7627L77.0841 44.5911C76.9309 44.0342 78.0141 44.332 78.3291 44.3191L78.3269 44.3212Z" fill="black"/>
<path d="M48.147 51.2003V44.293H49.2258V53.7905L48.1923 53.743L43.1843 46.6674V53.7905H41.8896V44.293L43.2922 44.511L48.147 51.2003Z" fill="black"/>
<path d="M165.31 44.293L166.236 44.3383L171.352 51.2003V44.293H172.646V53.7905C172.342 53.7862 172.012 53.8423 171.717 53.7495C170.912 53.4969 167.537 47.4509 166.389 46.6674V53.7905H165.31V44.293Z" fill="black"/>
<path d="M60.2303 48.6099C60.4482 55.9425 49.9877 55.5712 50.9716 48.0876C51.4096 44.7613 54.9223 43.1445 57.8352 44.6382C58.8429 45.1541 59.9023 45.9809 58.2107 46.4298C55.2201 43.4575 51.6275 46.078 52.2619 50C52.8833 53.8444 58.7048 53.6328 58.9378 49.6892H55.7013V48.6099H60.2324H60.2303Z" fill="black"/>
<path d="M129.678 48.9965C129.678 51.6666 127.516 53.8295 124.847 53.8295C122.178 53.8295 120.016 51.6666 120.016 48.9965C120.016 46.3264 122.178 44.1636 124.847 44.1636C127.516 44.1636 129.678 46.3264 129.678 48.9965ZM124.04 45.2061C120.629 45.9012 120.592 52.1566 124.003 52.6963C129.984 53.6417 129.272 44.142 124.04 45.2061Z" fill="black"/>
<path d="M163.828 49.0053C163.828 51.6754 161.664 53.8383 158.997 53.8383C156.33 53.8383 154.166 51.6733 154.166 49.0053C154.166 46.3374 156.33 44.1724 158.997 44.1724C161.664 44.1724 163.828 46.3374 163.828 49.0053ZM158.35 45.2085C154.578 45.8258 154.763 52.2798 158.291 52.7158C164.076 53.4281 163.388 44.3839 158.35 45.2085Z" fill="black"/>
<path d="M93.6402 44.3298L97.127 53.7885C95.1613 54.1835 95.8086 52.8495 95.1678 51.9732C94.7039 51.3407 91.5105 51.6278 90.6323 51.7638C90.1555 52.7891 90.2267 54.1036 88.7141 53.7885L92.1427 44.4248L93.6402 44.3276V44.3298ZM94.5378 50.5528L92.9195 45.8019C92.3671 47.3647 91.5234 48.9145 91.3012 50.5528H94.5378Z" fill="black"/>
<path d="M68.8652 48.4006L70.3756 50.9822C70.861 51.3189 71.7306 48.7524 72.434 50.1209C72.7253 50.6864 71.4846 51.2585 71.2883 51.7355L72.7469 53.7861C71.3724 54.0905 71.2883 53.2745 70.4813 52.4975C66.7398 56.5188 62.5409 50.9779 67.344 48.2883C65.9156 46.7191 66.4183 44.5109 68.7551 44.7159C71.0919 44.921 70.8157 47.8286 68.8673 48.4006H68.8652ZM68.1337 45.6139C67.9654 45.67 67.8554 45.7672 67.8101 45.9442C67.6871 46.5809 67.7863 47.2911 68.3193 47.7357C69.6959 47.3623 69.7131 45.0851 68.1337 45.6161V45.6139ZM67.7281 49.2899C67.4929 49.3374 66.8995 49.823 66.7355 50.0432C64.9382 52.4608 68.7335 54.1682 69.9224 51.5542C69.3097 51.075 68.5221 49.128 67.7281 49.2899Z" fill="black"/>
<path d="M137.692 44.293V51.3082C137.692 52.5623 140.624 53.3566 141.671 52.0507C141.779 51.9169 142.223 50.9542 142.223 50.8765V44.293H143.518V50.6606C143.518 52.3896 141.783 53.8531 140.121 53.9524C138.766 54.0344 136.397 52.789 136.397 51.3082V44.293H137.692Z" fill="black"/>
<path d="M117.862 46.8594C117.809 46.8141 117.78 46.0133 117.306 45.5816C116.149 44.5239 114.35 45.4952 114.602 46.9803C114.909 48.7762 120.26 48.3078 118.967 52.2212C118.035 55.0446 113.049 54.3366 113.308 51.2002L114.594 51.2089L114.87 52.4436C116.093 53.0587 118.029 52.8429 117.94 51.17C117.841 49.2964 114.727 49.7109 113.735 48.0725C111.471 44.3383 118.462 42.0157 119.095 46.5637C119.034 46.9134 118.029 46.9997 117.86 46.8551L117.862 46.8594Z" fill="black"/>
<path d="M179.046 44.7983C179.538 45.2689 179.875 46.2014 179.767 46.8835L178.675 46.7885C178.436 44.5026 175.158 44.5717 175.458 46.9698C175.687 48.7938 179.657 48.1937 179.978 50.8962C180.423 54.6348 174.066 55.2672 173.943 51.2006L175.214 51.2243C175.24 53.5253 179.077 53.2231 178.692 50.8876C178.423 49.2557 174.517 49.7651 174.168 47.1878C173.794 44.4314 177.223 43.0521 179.048 44.7962L179.046 44.7983Z" fill="black"/>
<path d="M27.6488 44.293V45.3722H23.9807V48.3942H27.6488V49.4734H23.9807V52.7112H27.6488V53.7905H22.686V44.293H27.6488Z" fill="black"/>
<path d="M17.0199 44.1292C18.8432 43.814 20.3881 44.3342 21.6029 45.6963L20.6341 46.4129C19.087 44.4896 16.0403 44.8803 15.0909 47.1662C13.8481 50.1644 15.8224 53.5145 19.2402 52.61C19.8163 52.4589 21.1541 50.9329 21.3763 52.2021C21.5274 53.0655 18.9144 53.9613 18.2325 53.9958C12.5017 54.2829 11.8997 45.0185 17.0178 44.1313L17.0199 44.1292Z" fill="black"/>
<path d="M150.422 44.293L150.424 45.3744L148.049 45.3722V53.7905H146.754V45.3722L144.381 45.3744V44.293H150.422Z" fill="black"/>
<path d="M105.326 44.293V52.7112H108.563V53.7905H104.031V44.293H105.326Z" fill="black"/>
<path d="M33.9062 44.293V52.7112H37.1428V53.7905H32.9352L32.6116 53.4667V44.293H33.9062Z" fill="black"/>
<path d="M99.2847 44.293V52.3875L99.6083 52.7112H102.737V53.7905H98.2058V44.293H99.2847Z" fill="black"/>
<path d="M132.298 44.293V52.7112H135.75V53.7905H131.219V44.293H132.298Z" fill="black"/>
<path d="M152.796 44.293V53.4667C152.498 53.9028 151.965 53.7991 151.501 53.7905V44.293H152.796Z" fill="black"/>
<path d="M30.4539 44.293H29.375V53.7905H30.4539V44.293Z" fill="black"/>
<path d="M39.7319 44.293H38.6531V53.7905H39.7319V44.293Z" fill="black"/>
<path d="M91.301 50.5527C91.5233 48.9144 92.3669 47.3645 92.9193 45.8018L91.301 50.5527Z" fill="black"/>
</g>
<defs>
<clipPath id="clip0_2003_5722">
<rect width="180" height="54" fill="white"/>
</clipPath>
</defs>
</svg>
