<svg width="92" height="54" viewBox="0 0 92 54" fill="none" xmlns="http://www.w3.org/2000/svg">
<g clip-path="url(#clip0_2003_5720)">
<path d="M92 0L92 54L0 54L0 0L92 0ZM26.237 18.2848H13.9704C14.0249 18.4523 13.8 18.6556 13.8 18.712L13.8 36.1424L14.0556 36.3987L26.237 36.3987L26.237 32.4684L18.7407 32.4684V29.3924L25.3852 29.2215V25.2911H18.7407V22.2152H26.237V18.2848ZM44.1259 18.2848L44.1259 36.3987H49.0667L49.0667 18.2848H44.1259ZM74.963 18.2848H70.0222V30.5032C70.0222 31.6942 70.8792 33.8987 71.7276 34.7736C72.358 35.4247 74.3513 36.3987 75.2185 36.3987H79.0518V32.4684C77.7741 32.4803 76.205 32.6324 75.3957 31.4362C75.3105 31.3097 74.963 30.5715 74.963 30.5032V26.1456L78.8815 26.1456V22.2152L74.963 22.2152V18.2848ZM66.9556 36.3987V27.4272C66.9556 26.6087 66.1412 24.6794 65.5875 24.0146C63.405 21.3864 56.3534 21.3146 53.9171 23.5789C51.1009 26.1951 51.227 34.1721 55.1523 35.8485C55.8747 36.1578 57.5903 36.5816 58.3161 36.3628C58.5682 36.2877 60.2515 34.3789 60.5667 34.008C60.9347 33.5757 61.4747 32.9896 61.6724 32.4684H58.8613C58.7829 32.4684 57.7964 32.1761 57.6857 32.1095C56.6039 31.4516 56.6601 27.6972 57.4097 26.7881C58.1525 25.8892 61.2056 25.9285 61.8223 27.1059C61.9007 27.2546 62.1835 28.1825 62.1835 28.2816V36.3987L66.9538 36.3987H66.9556ZM41.0593 22.2152H33.4778C33.1234 22.2152 31.6616 22.8475 31.2902 23.097C27.8981 25.3937 27.8794 33.2425 31.2902 35.5153C31.6207 35.7357 33.1694 36.3987 33.4761 36.3987H41.0576V32.4684H35.5205C33.1507 32.4684 33.1353 27.5058 34.4199 26.5796C34.5324 26.4976 35.2922 26.1456 35.3501 26.1456H41.0576V22.2152H41.0593Z" fill="black"/>
</g>
<defs>
<clipPath id="clip0_2003_5720">
<rect width="92" height="54" fill="white"/>
</clipPath>
</defs>
</svg>
