<svg width="155" height="54" viewBox="0 0 155 54" fill="none" xmlns="http://www.w3.org/2000/svg">
<g clip-path="url(#clip0_2003_5753)">
<path d="M60.8987 5.82489C61.6809 5.9608 65.7587 5.63849 65.9368 5.82489C66.1149 6.01128 65.6541 7.19954 66.1265 7.37817C68.1673 4.96281 72.1792 4.64827 74.9326 5.84819C75.4011 6.054 77.4923 8.23248 78.0809 8.12763C78.4836 8.05774 79.3433 6.79181 79.8932 6.4229C81.6784 5.23852 85.2643 5.14532 87.3361 5.522C89.6867 5.94915 93.0403 9.42851 93.0403 11.84V25.6254C91.9831 25.4507 88.707 26.0293 88.1764 25.2604C87.5297 24.3284 88.3275 15.1834 87.9867 13.0244C87.5452 10.2401 84.6215 9.51006 82.178 10.2634C81.5003 10.4731 79.4866 12.4419 79.4866 13.0011V25.6215C78.4294 25.4468 75.1533 26.0254 74.6228 25.2565C73.9761 24.3245 74.7738 15.1796 74.433 13.0205C73.9373 9.89061 71.122 10.1469 68.7056 9.76635C68.179 10.9197 65.9368 11.9604 65.9368 13.3855V25.6176H60.9026V5.82489H60.8987Z" fill="#143595"/>
<path d="M20.6257 0L20.6257 25.0467C20.6257 25.804 15.7735 25.8156 15.5876 25.6331C15.4017 25.4506 15.8935 23.9789 15.3978 23.6915C13.6475 26.0214 10.4875 26.433 7.74193 25.9282C4.69042 25.369 0.91862 21.3771 0.271915 18.2744C-1.69918 8.84208 7.49022 1.56105 15.5915 7.37811L15.5915 0L20.6257 0ZM9.68979 9.78182C2.60315 10.7798 3.52093 22.5693 11.4982 21.3305C18.0389 20.3131 16.8926 8.7683 9.68979 9.78182Z" fill="#143595"/>
<path d="M77.5503 27.5709V35.3374C78.7662 35.0811 79.3665 34.0093 80.6405 33.586C84.3426 32.3473 88.9199 33.8423 91.1891 36.9994C97.7414 46.1016 88.4203 58.2289 78.1311 52.4235C77.6781 52.4934 78.228 53.4759 77.7245 53.6195C76.6286 53.9263 74.2006 53.3477 72.8994 53.5924V28.1573C72.8994 27.2331 76.7216 27.6525 77.5464 27.5748L77.5503 27.5709ZM81.7054 37.7605C75.4243 38.9022 75.9006 50.7731 84.238 49.2276C90.7709 48.0161 89.4039 36.3586 81.7054 37.7605Z" fill="#143595"/>
<path d="M155 53.2003H126.731L155 33.7842V53.2003Z" fill="#EB0A27"/>
<path d="M69.0308 53.5885C66.9513 53.3127 63.7991 54.7068 63.8029 51.643C60.3138 55.7514 53.3162 54.07 50.5087 49.8334C44.2043 40.3312 54.509 28.1301 64.1863 35.3412C64.6123 35.1354 63.8726 34.5219 64.012 34.0248C64.318 32.9569 69.0308 33.2132 69.0308 33.9782V53.5885ZM57.6921 37.7566C51.3994 39.0419 52.3055 50.6489 60.2248 49.2237C66.7538 48.051 65.5881 36.1412 57.6921 37.7566Z" fill="#143595"/>
<path d="M115.114 25.6294C114.378 25.5052 110.629 25.7964 110.463 25.6294C110.346 25.5129 110.548 24.115 110.463 23.6839C104.553 29.167 95.6272 24.5188 94.9611 16.9038C94.1789 7.94525 102.725 1.92627 110.269 7.3783C110.738 7.38995 110.296 5.99588 110.463 5.81725C110.629 5.63862 114.374 5.94539 115.114 5.81725V25.6217V25.6294ZM104.565 9.78201C97.2769 10.8072 98.396 22.5694 106.373 21.3307C112.786 20.3327 111.725 8.77626 104.565 9.78201Z" fill="#143595"/>
<path d="M115.113 53.2002C114.374 53.0759 110.625 53.371 110.463 53.2002C110.354 53.0837 110.536 52.0158 110.463 51.643C107.833 54.0545 104.631 54.4972 101.285 53.2778C99.3949 52.5905 96.0878 49.3752 95.4721 47.4569C92.3354 37.7178 101.904 28.9689 110.463 35.3335C110.54 34.9607 110.354 33.8928 110.463 33.7763C110.625 33.6094 114.374 33.9045 115.113 33.7763V53.1924V53.2002ZM104.17 37.7566C97.3115 38.8439 98.5972 50.913 106.698 49.2238C113.158 47.8763 111.787 36.549 104.17 37.7566Z" fill="#143595"/>
<path d="M43.7164 15.6766C43.7164 21.5131 38.9997 26.2428 33.1794 26.2428C27.359 26.2428 22.6423 21.5131 22.6423 15.6766C22.6423 9.84011 27.359 5.11035 33.1794 5.11035C38.9997 5.11035 43.7164 9.84011 43.7164 15.6766ZM32.9199 9.80128C25.4809 10.2207 25.5235 22.1033 33.981 21.3577C40.8585 20.7519 40.2931 9.38189 32.9199 9.80128Z" fill="#143595"/>
<path d="M35.3404 27.5709V40.7739L37.5864 40.6884C39.0928 38.5643 40.8935 36.6072 42.7136 34.7471C43.035 34.417 43.035 33.7841 43.0892 33.7841H49.2852C48.2086 35.0888 47.1166 36.3936 45.9974 37.6556C45.1223 38.6459 44.6924 39.1662 43.8637 40.1914C43.3061 40.8826 41.5325 42.1252 41.5363 42.9019C41.5402 44.1678 48.4526 51.3517 49.2852 53.2002H43.0892C43.0389 53.2002 43.035 52.5905 42.7097 52.241C41.242 50.6489 39.0308 47.0608 37.6987 45.989C37.0288 45.4493 36.5912 45.325 35.7315 45.4376L35.7315 53.0099C35.7315 53.9613 31.5686 53.4953 30.6973 53.5924L30.6973 28.1573C30.6973 27.2331 34.5194 27.6525 35.3442 27.5748L35.3404 27.5709Z" fill="#143595"/>
<path d="M45.7959 5.82488C47.2248 6.03846 49.3082 5.5414 50.6171 5.7977C51.1205 5.89478 50.5629 6.88111 51.0198 6.98984C53.2349 4.79583 56.1354 5.12978 58.9623 5.43656L58.1839 10.4847C57.9555 10.7138 53.8816 9.02465 51.9802 11.0556C51.7827 11.2653 50.8262 12.8923 50.8262 13.0049V25.6254H45.792V5.82488H45.7959Z" fill="#143595"/>
<path d="M139.502 33.788L143.379 39.2167L123.633 52.0352C123.358 51.7595 124.895 49.8839 125.19 49.5228C129.066 44.8008 133.632 39.4226 137.76 34.9452C138.054 34.6268 139.026 33.4463 139.498 33.788H139.502Z" fill="#EB0A27"/>
<path d="M122.084 49.317V33.7842L129.972 38.8828C130.348 39.0809 130.627 39.3333 130.627 39.7993C130.627 40.3662 124.334 47.6278 123.447 48.5482C123.04 48.9676 122.769 49.453 122.084 49.317Z" fill="#EB0A27"/>
</g>
<defs>
<clipPath id="clip0_2003_5753">
<rect width="155" height="54" fill="white"/>
</clipPath>
</defs>
</svg>
