<svg width="61" height="41" viewBox="0 0 61 41" fill="none" xmlns="http://www.w3.org/2000/svg">
<rect width="41" height="41" fill="#C9050B"/>
<path d="M29.5153 26.4144L21.6362 12.6397C21.522 12.4367 21.3559 12.2678 21.1549 12.1502C20.9538 12.0327 20.7251 11.9707 20.4923 11.9707C20.2594 11.9707 20.0307 12.0327 19.8297 12.1502C19.6286 12.2678 19.4625 12.4367 19.3483 12.6397L11.4824 26.421C11.3519 26.6536 11.2955 26.9204 11.3205 27.1859C11.3455 27.4514 11.4508 27.703 11.6224 27.9072C11.7939 28.1114 12.0236 28.2584 12.2809 28.3288C12.5381 28.3992 12.8107 28.3895 13.0623 28.3011L20.5001 25.7869L27.9378 28.2995C28.0783 28.3489 28.2261 28.3744 28.3751 28.3749C28.6043 28.3742 28.8293 28.3134 29.0277 28.1986C29.2261 28.0839 29.3911 27.9192 29.506 27.7209C29.621 27.5226 29.6821 27.2976 29.6831 27.0684C29.6842 26.8392 29.6252 26.6137 29.512 26.4144H29.5153ZM28.3627 27.0575L21.1563 24.6228V19.8437C21.1563 19.6696 21.0872 19.5027 20.9641 19.3797C20.841 19.2566 20.6741 19.1874 20.5001 19.1874C20.326 19.1874 20.1591 19.2566 20.036 19.3797C19.9129 19.5027 19.8438 19.6696 19.8438 19.8437V24.6228L12.6382 27.0575L12.6251 27.0624L20.4886 13.2812L28.3751 27.0624L28.3627 27.0575Z" fill="white"/>
</svg>
