<svg width="61" height="41" viewBox="0 0 61 41" fill="none" xmlns="http://www.w3.org/2000/svg">
<rect width="41" height="41" fill="#C9050B"/>
<path d="M21.8125 18.5313V15.25C21.8125 15.076 21.8816 14.9091 22.0047 14.786C22.1278 14.6629 22.2947 14.5938 22.4688 14.5938C22.6428 14.5938 22.8097 14.6629 22.9328 14.786C23.0559 14.9091 23.125 15.076 23.125 15.25V16.9473L25.942 14.1295C26.0651 14.0063 26.2321 13.9372 26.4063 13.9372C26.5804 13.9372 26.7474 14.0063 26.8706 14.1295C26.9937 14.2526 27.0629 14.4196 27.0629 14.5938C27.0629 14.7679 26.9937 14.9349 26.8706 15.0581L24.0536 17.875H25.75C25.9241 17.875 26.091 17.9442 26.214 18.0672C26.3371 18.1903 26.4063 18.3572 26.4063 18.5313C26.4063 18.7053 26.3371 18.8722 26.214 18.9953C26.091 19.1184 25.9241 19.1875 25.75 19.1875H22.4688C22.2947 19.1875 22.1278 19.1184 22.0047 18.9953C21.8816 18.8722 21.8125 18.7053 21.8125 18.5313ZM28.3652 25.0183C28.2189 26.1299 27.673 27.1502 26.8295 27.8886C25.9859 28.6271 24.9024 29.0333 23.7813 29.0313C17.268 29.0313 11.9688 23.7321 11.9688 17.2188C11.9666 16.0977 12.3727 15.0142 13.1113 14.1707C13.8498 13.3273 14.8702 12.7816 15.9817 12.6357C16.2627 12.6013 16.5473 12.6587 16.793 12.7993C17.0387 12.9399 17.2324 13.1561 17.3451 13.4158L19.0776 17.2836V17.2934C19.1638 17.4923 19.1994 17.7095 19.1812 17.9255C19.163 18.1415 19.0916 18.3496 18.9734 18.5313C18.9586 18.5534 18.9431 18.5739 18.9266 18.5944L17.2188 20.619C17.8332 21.8675 19.1391 23.1619 20.404 23.778L22.4007 22.0791C22.4203 22.0626 22.4408 22.0473 22.4622 22.0332C22.6437 21.9121 22.8526 21.8382 23.0699 21.8182C23.2871 21.7981 23.506 21.8325 23.7066 21.9184L23.7173 21.9233L27.5818 23.655C27.842 23.7671 28.059 23.9606 28.2002 24.2063C28.3414 24.4521 28.3993 24.7369 28.3652 25.0183ZM27.0625 24.8542C27.0625 24.8542 27.0568 24.8542 27.0535 24.8542L23.198 23.1275L21.2006 24.8264C21.1814 24.843 21.1611 24.8584 21.1399 24.8723C20.951 24.9983 20.7327 25.0732 20.5062 25.0895C20.2797 25.1059 20.0529 25.0633 19.8479 24.9658C18.3114 24.2234 16.7799 22.7034 16.0367 21.1834C15.9383 20.9798 15.8941 20.7543 15.9085 20.5286C15.9229 20.303 15.9953 20.0849 16.1187 19.8955C16.1326 19.8732 16.1483 19.8521 16.1655 19.8323L17.875 17.8053L16.1524 13.9498C16.152 13.9466 16.152 13.9433 16.1524 13.94C15.3569 14.0438 14.6265 14.434 14.098 15.0375C13.5695 15.641 13.2791 16.4166 13.2813 17.2188C13.2843 20.0026 14.3915 22.6716 16.36 24.64C18.3285 26.6085 20.9974 27.7157 23.7813 27.7188C24.583 27.7215 25.3583 27.4322 25.9622 26.9048C26.5661 26.3775 26.9572 25.6482 27.0625 24.8534V24.8542Z" fill="white"/>
</svg>
