<svg width="61" height="41" viewBox="0 0 61 41" fill="none" xmlns="http://www.w3.org/2000/svg">
<rect width="41" height="41" fill="#C9050B"/>
<path d="M20.5 15.25C19.851 15.25 19.2166 15.4424 18.677 15.803C18.1374 16.1635 17.7169 16.676 17.4685 17.2756C17.2202 17.8751 17.1552 18.5349 17.2818 19.1714C17.4084 19.8079 17.7209 20.3926 18.1798 20.8514C18.6387 21.3103 19.2234 21.6228 19.8599 21.7495C20.4964 21.8761 21.1561 21.8111 21.7557 21.5627C22.3553 21.3144 22.8677 20.8938 23.2283 20.3542C23.5888 19.8146 23.7812 19.1802 23.7812 18.5313C23.7812 17.661 23.4355 16.8264 22.8202 16.2111C22.2048 15.5957 21.3702 15.25 20.5 15.25ZM20.5 20.5C20.1106 20.5 19.73 20.3845 19.4062 20.1682C19.0825 19.9519 18.8301 19.6444 18.6811 19.2847C18.5321 18.9249 18.4931 18.5291 18.5691 18.1472C18.645 17.7653 18.8325 17.4145 19.1079 17.1391C19.3832 16.8638 19.734 16.6763 20.1159 16.6003C20.4978 16.5244 20.8937 16.5634 21.2534 16.7124C21.6131 16.8614 21.9206 17.1137 22.137 17.4375C22.3533 17.7612 22.4688 18.1419 22.4688 18.5313C22.4688 19.0534 22.2613 19.5542 21.8921 19.9234C21.5229 20.2926 21.0221 20.5 20.5 20.5ZM20.5 11.3125C18.5861 11.3147 16.7513 12.0759 15.398 13.4292C14.0447 14.7825 13.2834 16.6174 13.2812 18.5313C13.2812 21.107 14.4715 23.837 16.7266 26.4268C17.7398 27.597 18.8803 28.6507 20.1268 29.5686C20.2371 29.6459 20.3686 29.6873 20.5033 29.6873C20.638 29.6873 20.7695 29.6459 20.8798 29.5686C22.124 28.6504 23.2622 27.5966 24.2734 26.4268C26.5252 23.837 27.7188 21.107 27.7188 18.5313C27.7166 16.6174 26.9553 14.7825 25.602 13.4292C24.2487 12.0759 22.4139 11.3147 20.5 11.3125ZM20.5 28.2109C19.144 27.1445 14.5938 23.2275 14.5938 18.5313C14.5938 16.9648 15.216 15.4625 16.3237 14.3549C17.4313 13.2473 18.9336 12.625 20.5 12.625C22.0664 12.625 23.5687 13.2473 24.6763 14.3549C25.784 15.4625 26.4062 16.9648 26.4062 18.5313C26.4062 23.2259 21.856 27.1445 20.5 28.2109Z" fill="white"/>
</svg>
