<svg width="42" height="42" viewBox="0 0 42 42" fill="none" xmlns="http://www.w3.org/2000/svg">
<g clip-path="url(#clip0_2003_6204)">
<path d="M19.5509 0H22.4546C22.6318 0.0976828 23.6057 0.126286 23.8881 0.165406C24.9502 0.321345 26.0004 0.55021 27.0309 0.850379C31.8904 2.30481 36.0566 5.47407 38.7552 9.76914C39.4763 10.9041 40.0846 12.1071 40.5708 13.3607C41.0818 14.6949 41.459 16.0766 41.6965 17.4855C41.7734 17.9516 41.8333 18.409 41.8812 18.8783C41.9069 19.1295 41.888 19.7646 42 19.9553V21.9975C41.9313 22.1255 41.9216 22.3431 41.9141 22.4885C41.87 23.4216 41.7465 24.3493 41.5457 25.2617C41.1747 27.017 40.7055 28.4687 39.9178 30.0915C37.4967 35.0944 33.1956 38.9372 27.9525 40.7814C22.6576 42.6156 16.851 42.2701 11.811 39.8215C6.8331 37.3798 3.01803 33.0748 1.19267 27.8396C-0.628605 22.5354 -0.267526 16.7251 2.19643 11.6874C4.78199 6.42932 9.44949 2.49281 15.0684 0.831325C16.0342 0.552653 17.0174 0.338264 18.0116 0.189567C18.3484 0.138627 19.2968 0.105905 19.5509 0Z" fill="#C9050B"/>
<path d="M20.3886 2.53817C30.5742 2.25213 39.0614 10.281 39.3407 20.4668C39.6198 30.6525 31.5852 39.1343 21.3994 39.4069C11.2229 39.679 2.7509 31.6537 2.47191 21.4775C2.19292 11.3013 10.2126 2.82393 20.3886 2.53817Z" fill="#F8B901"/>
<path d="M15.5458 7.76366C16.6012 7.68226 19.8971 7.81011 20.4211 8.82373C20.0787 9.46017 19.598 9.20431 19.0613 9.18959C17.2932 9.14104 15.3602 9.52579 13.8646 10.4516C12.4315 11.3241 11.4137 12.7405 11.0439 14.377C10.1251 18.3545 13.001 22.5866 15.8699 25.0653C16.4784 25.591 17.2615 26.3676 17.0846 27.2519C16.9535 27.9073 16.3084 27.8991 15.8459 28.1694C16.3466 28.4245 16.8223 28.4137 17.366 28.3226C17.7328 28.2611 18.2774 28.162 18.5019 27.8288C18.7126 27.5162 18.5833 27.1096 18.4302 26.8021C18.0023 25.9429 17.0248 24.9421 16.3863 24.1997C15.5287 23.2026 14.693 22.2008 13.9708 21.0987C13.2707 20.0301 12.7233 18.859 12.4955 17.5956C12.2019 15.9677 12.6522 14.3586 13.59 13.0163C14.1454 12.2214 15.2873 10.9945 16.1285 10.4968C16.8847 10.0494 17.8505 9.75751 18.7133 9.60846C18.9286 9.57126 19.1475 9.54511 19.3663 9.54322C20.5385 9.53313 23.3193 9.89983 24.2666 10.58C24.3872 10.6665 24.4994 10.777 24.5209 10.9297C24.5459 11.1067 24.5457 11.2933 24.5574 11.4722C24.5919 12.0035 24.6097 12.5292 24.6105 13.0617C24.6126 14.196 24.5843 15.3254 24.5506 16.4588C24.5443 16.6722 24.5902 17.4382 24.4836 17.574C24.379 17.6191 24.2623 17.5655 24.177 17.4868C22.6678 16.0944 20.2902 13.4534 19.1919 16.8643C18.9871 17.5002 20.2962 18.6536 20.7462 19.0611C21.1125 19.3966 21.4847 19.7255 21.8629 20.0475C22.821 20.8787 23.7785 21.7023 24.4544 22.7826C24.5115 22.8739 24.5771 22.9657 24.6372 23.0554C25.5196 21.903 26.231 21.1262 27.5466 20.4399C27.9332 20.2411 28.3421 20.0892 28.7646 19.9872C29.0505 19.9212 29.7354 19.8193 30.0395 19.8261C31.1176 19.8499 32.3557 20.1329 33.2837 20.6908C33.4822 20.8102 33.7094 21.0103 33.759 21.241C33.7798 21.3374 33.7531 21.5597 33.7238 21.6553C33.564 22.1764 32.9473 23.8537 32.6621 24.2541C32.3559 24.2885 32.0306 24.2385 31.7433 24.1435C30.6759 23.7908 30.0297 23.4372 28.8874 23.8853C28.1668 24.1609 27.6289 24.7321 27.3235 25.4458C26.6416 27.0394 27.175 29.6234 28.8606 30.3781C29.5287 30.6773 30.1347 30.4915 30.7817 30.2241C30.7817 29.8802 30.8484 29.5399 30.8646 29.1966C30.8822 28.8244 30.8024 27.1914 30.931 26.9929C31.0077 26.8745 31.1849 26.8214 31.3155 26.7909C31.7271 26.6943 33.0499 26.6842 33.4656 26.7628C33.5954 26.7872 33.7002 26.828 33.8122 26.8977C33.9805 27.2355 33.9272 27.7978 33.927 28.187L33.9262 29.9692L33.9274 31.9519C33.928 32.3163 33.9457 32.6912 33.9202 33.0544C33.9063 33.2543 33.8614 33.4676 33.6973 33.6007C33.4578 33.7947 31.5889 34.0699 31.1989 34.1163C30.816 34.1618 30.421 34.1946 30.0356 34.2094C29.7198 34.2217 29.3974 34.1971 29.0833 34.1649C27.4832 34.0018 26.1792 33.2024 25.2301 31.9232C25.1164 31.77 25.0002 31.6166 24.9007 31.4539C24.7846 31.264 24.6815 31.0508 24.5391 30.8795C24.4378 30.7579 24.2799 30.616 24.1157 30.6004C24.0012 30.6478 23.8776 30.9455 23.805 31.0542C23.538 31.4541 23.2139 31.885 22.871 32.2217C20.9657 34.0927 18.4519 34.1948 15.9506 33.9965C15.1669 33.9385 14.3841 33.8671 13.6028 33.7826C13.1197 33.7348 12.1875 33.6876 11.7285 33.5541C11.5306 33.4963 11.3516 33.3872 11.2095 33.2379C10.9239 32.9381 10.9985 32.5745 11.0019 32.183L11.0033 31.2831C11.0034 30.181 10.9868 29.035 11.0069 27.9364C11.1534 27.7289 11.2622 27.6569 11.4766 27.5456C11.9611 27.727 12.3069 27.8265 12.8334 27.8093C13.2025 27.7972 13.6248 27.7029 13.8891 27.4203C14.2394 27.0458 13.9719 26.4131 13.8364 26.0093C13.3137 24.452 12.4152 23.1138 11.374 21.8561C10.8754 21.2538 10.33 20.6297 9.85016 20.0053C9.45157 19.496 9.09453 18.9555 8.78248 18.3891C8.20008 17.3074 7.93717 16.1562 7.8754 14.9342C7.84093 14.5195 7.90335 14.114 7.92599 13.7047C8.15855 9.50001 11.805 7.90838 15.5458 7.76366Z" fill="#C9050B"/>
<path d="M25.5306 35.7742L25.5667 35.7699C26.5191 35.6664 26.7324 36.928 26.2469 37.5065C25.9065 37.9122 25.4752 37.8115 25.1241 37.4979L25.1243 38.0266L25.1235 38.4581L24.6137 38.4597L24.6133 35.8058C24.7745 35.8056 24.9359 35.8066 25.0971 35.8089L25.0831 36.073C25.2595 35.9073 25.3042 35.8606 25.5306 35.7742Z" fill="#C9050B"/>
<path d="M25.5207 36.1577C25.7246 36.1747 25.8854 36.2795 25.9362 36.4811C26.0281 36.8472 25.9871 37.2485 25.5894 37.372C24.9627 37.2813 24.9549 36.2982 25.5207 36.1577Z" fill="#F8B901"/>
<path d="M16.8917 35.0351C17.5201 34.9799 17.9202 35.1895 18.1396 35.7965C17.9808 35.8402 17.7702 35.8759 17.6053 35.9085C17.3125 35.2654 16.4532 35.3927 16.2964 35.9838C16.0453 36.9298 16.6035 37.6693 17.6242 37.0951L17.6223 36.7508L17.0175 36.7504C17.008 36.6419 17.0105 36.5307 17.0104 36.4216C17.0105 36.3615 17.0035 36.3556 17.0356 36.3078C17.3035 36.2805 17.8807 36.3 18.1709 36.3017C18.167 36.6544 18.1675 37.0071 18.1724 37.3599C17.889 37.585 17.5466 37.7235 17.1863 37.7581C16.8159 37.7963 16.4223 37.7218 16.1376 37.477C15.4195 36.8593 15.5583 35.4112 16.5185 35.1001C16.6549 35.0558 16.7514 35.0474 16.8917 35.0351Z" fill="#C9050B"/>
<path d="M20.8103 35.7721C21.3588 35.6825 21.876 36.0547 21.965 36.6033C22.0541 37.1519 21.681 37.6687 21.1324 37.7571C20.5845 37.8454 20.0688 37.4732 19.9799 36.9255C19.8911 36.3777 20.2626 35.8615 20.8103 35.7721Z" fill="#C9050B"/>
<path d="M20.879 36.1788C21.5596 36.1415 21.654 37.1156 21.0695 37.3475C20.5718 37.3647 20.4124 36.9415 20.5484 36.503C20.6017 36.3316 20.7207 36.2506 20.879 36.1788Z" fill="#F8B901"/>
<path d="M23.5928 35.8075L24.1063 35.8042C24.1018 36.0298 24.1035 36.2625 24.1022 36.4885L24.1024 37.728C23.947 37.7245 23.771 37.7678 23.6568 37.6868C23.6109 37.6204 23.6277 37.5459 23.633 37.4625C22.9142 38.0886 22.2793 37.7237 22.3513 36.823C22.3745 36.533 22.354 36.1046 22.3511 35.8081L22.8642 35.8046C22.8617 36.0273 22.654 37.8941 23.4507 37.2721C23.6617 37.1075 23.5947 36.111 23.5928 35.8075Z" fill="#C9050B"/>
<path d="M19.4386 35.7678C19.6468 35.7522 19.6943 35.7737 19.8854 35.8428C19.8358 36.002 19.7826 36.1394 19.7221 36.295C19.1674 36.0485 19.1561 36.5655 19.1485 36.9746C19.1438 37.2246 19.1459 37.4767 19.146 37.7267L18.882 37.7283L18.6366 37.7254C18.6239 37.1006 18.6362 36.4347 18.6368 35.8065C18.7636 35.8028 19.0041 35.7778 19.1037 35.8432C19.1091 35.9109 19.1057 35.9242 19.1338 35.9868C19.1822 35.9794 19.328 35.8205 19.4386 35.7678Z" fill="#C9050B"/>
</g>
<defs>
<clipPath id="clip0_2003_6204">
<rect width="42" height="42" fill="white"/>
</clipPath>
</defs>
</svg>
