<svg width="132" height="64" viewBox="0 0 132 64" fill="none" xmlns="http://www.w3.org/2000/svg">
<path d="M49.9278 40.0724L45.0382 35.1837C46.4554 33.4822 47.1621 31.2999 47.0113 29.0907C46.8604 26.8814 45.8637 24.8154 44.2284 23.3223C42.593 21.8293 40.4451 21.0242 38.2313 21.0745C36.0175 21.1248 33.9083 22.0267 32.3425 23.5925C30.7767 25.1583 29.8748 27.2675 29.8245 29.4813C29.7742 31.6951 30.5793 33.843 32.0723 35.4784C33.5654 37.1137 35.6314 38.1104 37.8407 38.2613C40.0499 38.4121 42.2322 37.7054 43.9337 36.2882L48.8224 41.1778C48.895 41.2504 48.9811 41.308 49.076 41.3473C49.1708 41.3866 49.2724 41.4068 49.3751 41.4068C49.4778 41.4068 49.5794 41.3866 49.6742 41.3473C49.7691 41.308 49.8552 41.2504 49.9278 41.1778C50.0004 41.1052 50.058 41.0191 50.0973 40.9242C50.1366 40.8294 50.1568 40.7278 50.1568 40.6251C50.1568 40.5224 50.1366 40.4208 50.0973 40.326C50.058 40.2311 50.0004 40.145 49.9278 40.0724ZM31.4064 29.6876C31.4064 28.297 31.8187 26.9375 32.5913 25.7812C33.3639 24.625 34.4621 23.7238 35.7469 23.1916C37.0317 22.6594 38.4454 22.5202 39.8093 22.7915C41.1733 23.0628 42.4261 23.7324 43.4094 24.7158C44.3928 25.6991 45.0624 26.9519 45.3337 28.3159C45.6051 29.6798 45.4658 31.0936 44.9336 32.3783C44.4015 33.6631 43.5002 34.7613 42.344 35.5339C41.1877 36.3065 39.8283 36.7189 38.4376 36.7189C36.5734 36.7168 34.7862 35.9753 33.468 34.6572C32.1499 33.339 31.4084 31.5518 31.4064 29.6876Z" fill="white"/>
</svg>
